<svg width="15" height="12" viewBox="0 0 15 12" fill="none" xmlns="http://www.w3.org/2000/svg">
<path d="M12.7791 8.44429L12.7791 10.9806C12.7791 11.2431 12.6748 11.4948 12.4892 11.6804C12.3036 11.8661 12.0518 11.9703 11.7893 11.9703L2.8814 11.9703C2.6189 11.9703 2.36715 11.8661 2.18153 11.6804C1.99591 11.4948 1.89163 11.2431 1.89163 10.9806L1.89163 8.44429C1.53319 8.35174 1.20788 8.16053 0.952655 7.89238C0.697427 7.62423 0.522505 7.28989 0.447756 6.92731C0.373007 6.56474 0.401426 6.18847 0.529785 5.84124C0.658145 5.49401 0.881301 5.18973 1.17391 4.96296C1.46652 4.73619 1.81686 4.59601 2.18513 4.55835C2.55341 4.52069 2.92487 4.58705 3.25732 4.7499C3.58977 4.91275 3.8699 5.16556 4.06589 5.47963C4.26187 5.79369 4.36586 6.15642 4.36605 6.52661L4.36605 9.00103C4.36605 9.13228 4.41819 9.25816 4.511 9.35097C4.60381 9.44378 4.72968 9.49591 4.86093 9.49591C4.99219 9.49591 5.11806 9.44378 5.21087 9.35097C5.30368 9.25816 5.35582 9.13228 5.35582 9.00103V7.0215L9.31489 7.0215V9.00103C9.31489 9.13228 9.36702 9.25816 9.45983 9.35097C9.55264 9.44378 9.67852 9.49591 9.80977 9.49591C9.94102 9.49591 10.0669 9.44378 10.1597 9.35097C10.2525 9.25816 10.3047 9.13228 10.3047 9.00103V6.52661C10.3048 6.15642 10.4088 5.79369 10.6048 5.47963C10.8008 5.16556 11.0809 4.91275 11.4134 4.7499C11.7458 4.58705 12.1173 4.52069 12.4856 4.55835C12.8538 4.59601 13.2042 4.73619 13.4968 4.96296C13.7894 5.18973 14.0126 5.49401 14.1409 5.84124C14.2693 6.18847 14.2977 6.56474 14.2229 6.92731C14.1482 7.28989 13.9733 7.62423 13.718 7.89238C13.4628 8.16053 13.1375 8.35174 12.7791 8.44429ZM5.31252 6.03173L9.35819 6.03173C9.47509 5.34014 9.83304 4.71226 10.3686 4.25934C10.9042 3.80643 11.5828 3.55773 12.2842 3.55731H12.5131C12.5468 3.56079 12.5808 3.55713 12.613 3.54657C12.6452 3.53601 12.6748 3.51879 12.6999 3.49603C12.725 3.47327 12.745 3.44549 12.7586 3.41448C12.7723 3.38347 12.7792 3.34993 12.7791 3.31606V3.06243C12.7791 2.40617 12.5184 1.7768 12.0543 1.31275C11.5903 0.848709 10.9609 0.588013 10.3047 0.588013L4.36605 0.588013C3.70979 0.588013 3.08042 0.848709 2.61637 1.31275C2.15233 1.7768 1.89163 2.40617 1.89163 3.06243V3.32224C1.89145 3.35612 1.89841 3.38965 1.91205 3.42066C1.92569 3.45167 1.94571 3.47946 1.97081 3.50222C1.9959 3.52498 2.0255 3.5422 2.05769 3.55276C2.08988 3.56331 2.12393 3.56697 2.15763 3.5635H2.38652C3.08702 3.56367 3.76491 3.81149 4.30035 4.26317C4.83579 4.71484 5.1943 5.34127 5.31252 6.03173Z" fill="#8C8D89"/>
</svg>
