<svg width="18" height="23" viewBox="0 0 18 23" fill="none" xmlns="http://www.w3.org/2000/svg">
<path fill-rule="evenodd" clip-rule="evenodd" d="M14.4561 17.4179C14.4561 17.6929 14.2311 17.9179 13.9561 17.9179H3.37811C3.10211 17.9179 2.87811 17.6929 2.87811 17.4179V3.47986C2.87811 3.20486 3.10211 2.97986 3.37811 2.97986H13.9561C14.2311 2.97986 14.4561 3.20486 14.4561 3.47986V17.4179ZM13.9561 1.97986H3.37811C2.55111 1.97986 1.87811 2.65286 1.87811 3.47986V17.4179C1.87811 18.2449 2.55111 18.9179 3.37811 18.9179H13.9561C14.7831 18.9179 15.4561 18.2449 15.4561 17.4179V3.47986C15.4561 2.65286 14.7831 1.97986 13.9561 1.97986Z" fill="#3A3A3A"/>
<mask id="mask0_7_3715" style="mask-type:luminance" maskUnits="userSpaceOnUse" x="0" y="0" width="18" height="23">
<path fill-rule="evenodd" clip-rule="evenodd" d="M0 0H17.376V22.8358H0V0Z" fill="white"/>
</mask>
<g mask="url(#mask0_7_3715)">
<path fill-rule="evenodd" clip-rule="evenodd" d="M16.376 20.537C16.376 21.253 15.793 21.836 15.077 21.836H2.299C1.583 21.836 1 21.253 1 20.537V2.299C1 1.583 1.583 1 2.299 1H15.077C15.793 1 16.376 1.583 16.376 2.299V20.537ZM15.077 0H2.299C1.031 0 0 1.031 0 2.299V20.537C0 21.805 1.031 22.836 2.299 22.836H15.077C16.345 22.836 17.376 21.805 17.376 20.537V2.299C17.376 1.031 16.345 0 15.077 0Z" fill="#231F20"/>
</g>
<path fill-rule="evenodd" clip-rule="evenodd" d="M8.68852 19.6952C8.30352 19.6952 7.99152 20.0072 7.99152 20.3912C7.99152 20.7762 8.30352 21.0892 8.68852 21.0892C9.07252 21.0892 9.38452 20.7762 9.38452 20.3912C9.38452 20.0072 9.07252 19.6952 8.68852 19.6952Z" fill="#231F20"/>
</svg>
